<?xml version="1.0" encoding="UTF-8" standalone="no"?>
<!DOCTYPE svg PUBLIC "-//W3C//DTD SVG 1.1//EN" "http://www.w3.org/Graphics/SVG/1.1/DTD/svg11.dtd">
<svg width="100%" height="100%" viewBox="0 0 256 256" version="1.1" xmlns="http://www.w3.org/2000/svg" xmlns:xlink="http://www.w3.org/1999/xlink" xml:space="preserve" xmlns:serif="http://www.serif.com/" style="fill-rule:evenodd;clip-rule:evenodd;stroke-linecap:round;stroke-linejoin:round;stroke-miterlimit:1.5;">
    <g>
        <g transform="matrix(1,0,0,1,0,-2.07583)">
            <path d="M128,246.247C103.311,246.247 70.779,174.701 69.19,173.16C67.398,171.422 32.536,154.177 32.132,142.667C31.773,132.48 65.694,113.39 67.356,110.841C68.738,108.722 66.651,16.712 84.989,13.971C101.28,11.536 128,77.74 128,77.74C128,77.74 154.72,11.536 171.011,13.971C189.349,16.712 187.262,108.722 188.644,110.841C190.306,113.39 224.227,132.48 223.868,142.667C223.464,154.177 188.602,171.422 186.81,173.16C185.221,174.701 152.689,246.247 128,246.247Z" style="fill:rgb(254,208,0);"/>
            <path d="M62.791,179.146C54.956,174.414 33.715,162.957 26.64,151.399C19.664,140.001 26.292,130.738 42.437,118.554C48.992,113.607 55.804,109.209 59.536,106.595C60.314,90.627 60.084,36.374 71.006,15.951C77.301,4.178 87.744,2.654 97.221,9.717C100.565,12.209 110.704,20.192 127.863,56.166C134.747,41.303 144.462,22.789 154.036,12.978C155.581,11.395 164.813,1.505 175.636,5.723C188.802,10.855 194.746,33.325 196.258,89.566C196.499,98.54 196.589,103.445 196.71,106.518C203.847,111.484 222.771,123.066 229.445,133.46C239.25,148.729 223.639,161.64 197.672,176.83C195.106,178.331 194.067,178.929 193.378,179.336C186.158,193.089 163.927,239.356 140.694,251.973C134.329,255.43 129.711,255.452 127.982,255.481C121.875,255.311 109.916,253.677 91.786,228.859C78.076,210.093 67.101,187.439 62.791,179.146ZM127.948,237.016L127.948,237.012C129.123,236.965 142.364,236.875 171.204,183.751C178.819,169.724 178.901,168.007 182.008,165.809C185.221,163.536 207.756,152.022 214.472,143.373C214.698,143.081 214.883,142.804 215.027,142.572C213.414,140.031 209.028,135.963 202.768,131.285C191.96,123.207 184.538,119.248 182.052,116.09C179.997,113.478 179.958,111.229 179.6,101.614C179.145,89.383 177.719,39.756 169.613,24.458C169.494,24.233 169.378,24.031 169.268,23.85C164.259,27.477 154.201,41.109 140.985,69.874C139.021,74.147 137.263,78.183 136.151,80.847C135.488,82.437 134.695,83.332 134.53,83.519C134.15,83.948 131.927,86.46 128,86.459C127.427,86.459 124.073,86.459 121.471,83.519C120.055,81.919 120.343,81.735 116.627,73.138C104.939,46.095 93.072,27.013 86.472,22.79C84.991,24.919 81.702,31.609 79.263,51.563C76.117,77.291 76.4,106.979 75.536,111.889C74.714,116.568 71.872,118.045 62.982,124.08C61.579,125.032 44.159,136.549 40.618,142.553C41.781,144.501 45.692,149.184 59.58,157.641C71.409,164.843 74.306,165.346 76.529,168.799C78.928,172.524 97.77,212.026 116.201,229.807C123.532,236.88 127.277,237.033 127.948,237.016Z"/>
        </g>
        <path d="M165.234,109.872C165.234,109.872 147.987,129.541 139.478,160.304" style="fill:none;stroke:black;stroke-width:7.47px;"/>
        <g transform="matrix(-1,0,0,1,256,0)">
            <path d="M165.234,109.872C165.234,109.872 147.987,129.541 139.478,160.304" style="fill:none;stroke:black;stroke-width:7.47px;"/>
        </g>
    </g>
</svg>
