# Blender v2.82 (sub 7) OBJ File: 'microphone.blend'
# www.blender.org
o Plane.001
v 0.067968 2.018299 0.000000
v 0.146625 -0.910993 0.000000
v 0.224247 -1.156621 0.000000
v 0.067968 -0.821246 0.000000
v 0.281775 -0.963850 0.000000
v 0.311961 -1.114063 0.000000
v 0.350772 -1.053690 0.000000
v 0.324898 -0.998348 0.000000
v 0.264372 -1.343049 -0.000000
v 0.297911 -1.302951 0.000000
v 0.259479 -1.162930 0.000000
v 0.288827 -1.197669 0.000000
v 0.304998 -1.257562 0.000000
v 0.264372 -1.646086 -0.000000
v 0.122124 -1.792825 -0.000000
v 0.198407 -1.752144 -0.000000
v 0.246321 -1.703231 0.000000
v -0.067968 2.018299 0.000000
v -0.146625 -0.910993 0.000000
v -0.224247 -1.156621 0.000000
v -0.067968 -0.821246 0.000000
v -0.281775 -0.963850 0.000000
v -0.311961 -1.114063 0.000000
v -0.350772 -1.053690 0.000000
v -0.324898 -0.998348 0.000000
v -0.264372 -1.343049 -0.000000
v -0.297911 -1.302951 0.000000
v -0.259479 -1.162930 0.000000
v -0.288827 -1.197669 0.000000
v -0.304998 -1.257562 0.000000
v -0.264372 -1.646086 -0.000000
v -0.122124 -1.792825 -0.000000
v -0.198407 -1.752144 -0.000000
v -0.246321 -1.703231 0.000000
vt 0.315233 0.265781
vt 0.632244 0.265781
vt 0.577378 0.314680
vt 0.370099 0.314680
vt 0.286872 0.228668
vt 0.660606 0.228668
vt 0.694244 0.274254
vt 0.672907 0.304158
vt 0.721677 0.286273
vt 0.703388 0.297290
vt 0.286872 0.168340
vt 0.660606 0.168340
vt 0.684313 0.236650
vt 0.657148 0.264525
vt 0.689322 0.245686
vt 0.677892 0.257610
vt 0.387417 0.139128
vt 0.560061 0.139128
vt 0.613979 0.147226
vt 0.647847 0.156964
vt 0.521781 0.332547
vt 0.425697 0.332547
vt 0.274571 0.304158
vt 0.253234 0.274254
vt 0.244090 0.297290
vt 0.225801 0.286273
vt 0.290330 0.264525
vt 0.263165 0.236650
vt 0.269586 0.257610
vt 0.258155 0.245686
vt 0.299630 0.156964
vt 0.333498 0.147226
vt 0.521781 0.897835
vt 0.425697 0.897835
vn 0.0000 0.0000 1.0000
s off
f 20/1/1 3/2/1 2/3/1 19/4/1
f 20/1/1 26/5/1 9/6/1 3/2/1
f 2/3/1 3/2/1 6/7/1 5/8/1
f 5/8/1 6/7/1 7/9/1 8/10/1
f 26/5/1 31/11/1 14/12/1 9/6/1
f 3/2/1 9/6/1 10/13/1 11/14/1
f 11/14/1 10/13/1 13/15/1 12/16/1
f 31/11/1 32/17/1 15/18/1 14/12/1
f 14/12/1 15/18/1 16/19/1 17/20/1
f 4/21/1 21/22/1 19/4/1 2/3/1
f 19/4/1 22/23/1 23/24/1 20/1/1
f 22/23/1 25/25/1 24/26/1 23/24/1
f 20/1/1 28/27/1 27/28/1 26/5/1
f 28/27/1 29/29/1 30/30/1 27/28/1
f 31/11/1 34/31/1 33/32/1 32/17/1
f 1/33/1 18/34/1 21/22/1 4/21/1
