# Blender v2.82 (sub 7) OBJ File: 'Stage2.blend'
# www.blender.org
mtllib StageOpt.mtl
o Cube_Cube.001
v -2.498306 0.512482 0.746584
v -2.498306 0.512482 -1.224560
v 2.498309 0.512482 0.746584
v 2.498309 0.512482 -1.224560
v -2.270734 0.803907 0.652405
v -2.270734 0.803907 -0.995522
v 2.270736 0.803907 -0.995522
v 2.270736 0.803907 0.652405
v -2.395615 -0.001051 -1.099145
v -2.395615 -0.001051 0.694218
v -2.395615 0.504093 0.694218
v -2.395615 0.504093 -1.099145
v 2.395618 -0.001051 -1.099145
v 2.395618 0.504093 -1.099145
v 2.395618 -0.001051 0.694218
v 2.395618 0.504093 0.694218
v 2.009765 0.512482 0.972186
v 1.607812 0.512482 1.064407
v 1.205860 0.512482 1.125031
v 0.803907 0.512482 1.164353
v 0.401954 0.512482 1.186680
v 0.000001 0.512482 1.193936
v -0.401952 0.512482 1.186680
v -0.803904 0.512482 1.164353
v -1.205857 0.512482 1.125031
v -1.607810 0.512482 1.064407
v -2.009763 0.512482 0.972186
v -2.009763 0.803907 -1.224560
v -1.607810 0.803907 -1.224560
v -0.803904 0.803907 -1.224560
v -0.401952 0.803907 -1.224560
v 0.000001 0.803907 -1.224560
v 0.401954 0.803907 -1.224560
v 0.803907 0.803907 -1.224560
v 1.607812 0.803907 -1.224560
v 2.009765 0.803907 -1.224560
v -2.009763 -0.001051 0.846771
v -1.607810 -0.001051 0.938992
v -1.205857 -0.001051 0.999616
v -0.803904 -0.001051 1.038938
v -0.401952 -0.001051 1.061265
v 0.000001 -0.001051 1.068521
v 0.401954 -0.001051 1.061265
v 0.803907 -0.001051 1.038938
v 1.205860 -0.001051 0.999616
v 1.607812 -0.001051 0.938992
v 2.009765 -0.001051 0.846771
v 2.009765 0.504093 0.846771
v 1.607812 0.504093 0.938992
v 1.205860 0.504093 0.999616
v 0.803907 0.504093 1.038938
v 0.401954 0.504093 1.061265
v 0.000001 0.504093 1.068521
v -0.401952 0.504093 1.061265
v -0.803904 0.504093 1.038938
v -1.205857 0.504093 0.999616
v -1.607810 0.504093 0.938992
v -2.009763 0.504093 0.846771
v -2.009763 0.803907 -0.995522
v -1.607810 0.803907 -0.995522
v -1.178106 0.803907 -0.995525
v -0.803904 0.803907 -0.995522
v -0.401952 0.803907 -0.995522
v 0.000001 0.803907 -0.995522
v 0.401954 0.803907 -0.995522
v 0.803907 0.803907 -0.995522
v 1.205860 0.803907 -0.995522
v 1.607812 0.803907 -0.995522
v 2.009765 0.803907 -0.995522
v 2.009765 0.803907 0.743148
v 1.607812 0.803907 0.835369
v 1.205860 0.803907 0.895993
v 0.803907 0.803907 0.935315
v 0.401954 0.803907 0.957643
v 0.000001 0.803907 0.964898
v -0.401952 0.803907 0.957643
v -0.803904 0.803907 0.935315
v -1.205857 0.803907 0.895993
v -1.607810 0.803907 0.835369
v -2.009763 0.803907 0.743148
v -1.178110 0.803907 -1.441850
v 1.178109 0.803907 -1.441846
v -1.607810 1.064913 -1.441846
v -2.498306 1.064910 -1.441850
v -2.009763 1.064913 -1.441846
v 2.009768 1.064913 -1.441850
v 2.498310 1.064913 -1.441850
v 1.607812 1.064913 -1.441846
v -1.178107 0.803907 -1.242158
v -1.195701 0.803907 -1.224563
v -1.178106 0.803907 -1.206969
v -1.160512 0.803907 -1.224563
v -1.160512 0.803907 -1.224563
v 1.195703 0.803907 -1.224560
v 1.178109 0.803907 -1.242155
v 1.160514 0.803907 -1.224560
v 1.160514 0.803907 -1.224560
v 1.180225 0.803907 -1.207093
v 2.009765 1.064913 -1.242155
v 2.009765 1.047318 -1.224560
v 2.498309 1.064913 -1.242155
v 2.498309 1.047318 -1.224560
v -2.498306 1.047318 -1.224560
v -2.498306 1.064912 -1.242155
v -2.009763 1.047318 -1.224560
v -2.009763 1.064913 -1.242155
v -1.607810 1.047318 -1.224560
v -1.607810 1.064913 -1.242155
v -1.195701 1.047318 -1.224563
v -1.178106 1.047318 -1.242158
v -1.195701 1.064913 -1.242158
v 1.178109 1.047318 -1.242155
v 1.195703 1.047318 -1.224560
v 1.195703 1.064913 -1.242155
v 1.607812 1.047318 -1.224560
v 1.607812 1.064913 -1.242155
v 1.178109 1.047318 -1.441846
v 1.195703 1.064913 -1.441846
v -1.195701 1.064913 -1.441849
v -1.178107 1.047318 -1.441849
v -2.498306 0.782277 0.746584
v -2.473955 0.803907 0.736507
v -2.498306 0.782277 -1.224560
v -2.474060 0.803907 -1.200158
v -2.476676 0.803907 -1.224560
v -2.498306 0.825537 -1.224560
v -2.498306 0.803907 -1.246190
v -2.476676 0.803907 -1.224560
v 2.474063 0.803907 -1.200158
v 2.498309 0.782277 -1.224560
v 2.476679 0.803907 -1.224560
v 2.498309 0.803907 -1.246190
v 2.498309 0.825537 -1.224560
v 2.476679 0.803907 -1.224560
v 2.473958 0.803907 0.736507
v 2.498309 0.782277 0.746584
v 2.009765 0.803907 0.950668
v 2.009765 0.782277 0.972186
v 1.607812 0.803907 1.042826
v 1.607812 0.782277 1.064407
v 1.205860 0.803907 1.103425
v 1.205860 0.782277 1.125031
v 0.803907 0.803907 1.142737
v 0.803907 0.782277 1.164353
v 0.401954 0.803907 1.165062
v 0.401954 0.782277 1.186680
v 0.000001 0.803907 1.172317
v 0.000001 0.782277 1.193936
v -0.401952 0.803907 1.165062
v -0.401952 0.782277 1.186680
v -0.803904 0.803907 1.142737
v -0.803904 0.782277 1.164353
v -1.205857 0.803907 1.103425
v -1.205857 0.782277 1.125031
v -1.607810 0.803907 1.042826
v -1.607810 0.782277 1.064407
v -2.009763 0.782277 0.972186
v -2.009763 0.803907 0.950668
v -2.270734 0.803907 0.646338
v -2.270734 0.803907 -0.995522
v 2.270736 0.803907 -0.995522
v 2.270736 0.803907 0.646338
v -2.009763 0.803907 -0.995522
v -1.607810 0.803907 -0.995522
v -1.178106 0.803907 -0.995525
v -0.803904 0.803907 -0.995522
v -0.401952 0.803907 -0.995522
v 0.000001 0.803907 -0.995522
v 0.401954 0.803907 -0.995522
v 0.803907 0.803907 -0.995522
v 1.205860 0.803907 -0.995522
v 1.607812 0.803907 -0.995522
v 2.009765 0.803907 -0.995522
v 2.009765 0.803907 0.737081
v 1.607812 0.803907 0.829303
v 1.205860 0.803907 0.889926
v 0.803907 0.803907 0.929249
v 0.401954 0.803907 0.951576
v 0.000001 0.803907 0.958832
v -0.401952 0.803907 0.951576
v -0.803904 0.803907 0.929249
v -1.205857 0.803907 0.889926
v -1.607810 0.803907 0.829303
v -2.009763 0.803907 0.737082
vt 0.375000 0.000000
vt 0.625000 0.000000
vt 0.625000 0.250000
vt 0.375000 0.250000
vt 0.375000 0.500000
vt 0.625000 0.500000
vt 0.625000 0.750000
vt 0.375000 0.750000
vt 0.375000 0.979167
vt 0.625000 0.979167
vt 0.625000 1.000000
vt 0.375000 1.000000
vt 0.625000 0.770833
vt 0.375000 0.770833
vt 0.625000 0.791667
vt 0.375000 0.791667
vt 0.625000 0.812500
vt 0.375000 0.812500
vt 0.625000 0.833333
vt 0.375000 0.833333
vt 0.625000 0.854167
vt 0.375000 0.854167
vt 0.625000 0.875000
vt 0.375000 0.875000
vt 0.625000 0.895833
vt 0.375000 0.895833
vt 0.625000 0.916667
vt 0.375000 0.916667
vt 0.625000 0.937500
vt 0.375000 0.937500
vt 0.625000 0.958333
vt 0.375000 0.958333
vt 9.581052 8.270955
vt 9.511456 8.270955
vt 8.009135 8.270952
vt 8.009135 8.270952
vt 9.581052 8.270955
vt -4.630536 8.270955
vt -6.138093 8.270952
vt -6.138093 8.270952
vt -4.630536 8.270955
vt 0.305199 0.442744
vt 0.103483 0.431729
vt 0.084870 0.266624
vt 0.305199 0.259406
vt -6.138093 8.270952
vt -7.709996 8.270955
vt -7.709996 8.270955
vt -6.138093 8.270952
vt 0.062061 0.562191
vt 0.080206 0.272435
vt 0.431921 0.258763
vt 0.431921 0.562192
vt 6.437218 8.270955
vt 6.437218 8.270955
vt -7.709996 8.270955
vt -9.212318 8.270955
vt -9.281913 8.270955
vt -9.281913 8.270955
vt -7.709996 8.270955
vt 8.009135 8.270952
vt 6.437219 8.270955
vt 6.437218 8.270955
vt 8.009135 8.270952
vt 9.581052 8.270955
vt 9.581052 8.270955
vt -4.630536 8.270955
vt -4.630536 8.270955
vt 5.066719 8.270955
vt 5.066719 8.270955
vt -9.281913 8.270955
vt -9.281913 8.270955
vt 0.073221 0.236900
vt 0.044812 0.264554
vt 0.099829 0.452279
vt 0.083306 0.436868
vt 0.304039 0.463619
vt 5.066719 8.270955
vt 0.062321 0.269302
vt 0.022410 0.559437
vt 0.430185 0.219316
vt 5.066720 8.270952
vt 0.636386 0.528630
vt 0.636386 0.721370
vt 0.626218 0.746937
vt 0.626213 0.503050
vt 0.844678 0.721370
vt 0.863614 0.721370
vt 0.873782 0.746937
vt 0.853275 0.747310
vt 0.655322 0.721370
vt 0.646725 0.747310
vt 0.625000 0.250000
vt 0.625000 0.000000
vt 0.625000 0.000000
vt 0.625000 0.250000
vt 0.625000 0.750000
vt 0.625000 0.500000
vt 0.625000 0.500000
vt 0.625000 0.750000
vt 0.625000 1.000000
vt 0.625000 0.979167
vt 0.625000 0.979167
vt 0.625000 1.000000
vt 0.625000 0.791667
vt 0.625000 0.770833
vt 0.625000 0.770833
vt 0.625000 0.791667
vt 0.625000 0.812500
vt 0.625000 0.812500
vt 0.625000 0.833333
vt 0.625000 0.833333
vt 0.625000 0.854167
vt 0.625000 0.854167
vt 0.625000 0.875000
vt 0.625000 0.875000
vt 0.625000 0.895833
vt 0.625000 0.895833
vt 0.625000 0.916667
vt 0.625000 0.916667
vt 0.625000 0.937500
vt 0.625000 0.937500
vt 0.625000 0.958333
vt 0.625000 0.958333
vt 0.844678 0.528630
vt 0.825742 0.528630
vt 0.833333 0.500000
vt 0.854167 0.500000
vt 0.808528 0.528630
vt 0.787871 0.528630
vt 0.791667 0.500000
vt 0.813325 0.500000
vt 0.813943 0.502199
vt 0.712129 0.528630
vt 0.693193 0.528630
vt 0.687934 0.502183
vt 0.688480 0.500000
vt 0.708333 0.500000
vt 0.768936 0.528630
vt 0.770833 0.500000
vt 0.750000 0.528630
vt 0.750000 0.500000
vt 0.731064 0.528630
vt 0.729167 0.500000
vt 0.674258 0.528630
vt 0.655322 0.528630
vt 0.645833 0.500000
vt 0.666667 0.500000
vt 0.825742 0.721370
vt 0.832618 0.747302
vt 0.806807 0.721370
vt 0.811963 0.747299
vt 0.787871 0.721370
vt 0.791309 0.747298
vt 0.768936 0.721370
vt 0.770654 0.747298
vt 0.750000 0.721370
vt 0.750000 0.747298
vt 0.731064 0.721370
vt 0.729346 0.747298
vt 0.712129 0.721370
vt 0.708692 0.747298
vt 0.693193 0.721370
vt 0.688037 0.747299
vt 0.674258 0.721370
vt 0.667382 0.747302
vt 0.686647 0.500000
vt 0.863614 0.528630
vt 0.874078 0.500000
vt 0.873787 0.503050
vt 0.625922 0.500000
vt 0.625000 0.437500
vt 0.625000 0.310606
vt 0.799058 0.484664
vt 0.813446 0.500000
vt 0.688448 0.500000
vt 0.682439 0.494939
vt 0.815169 0.500000
vt 0.814394 0.500000
vt 0.814394 0.500000
vt 0.813446 0.500000
vt 0.687500 0.500000
vt 0.687500 0.500000
vt 0.687500 0.500000
vt 0.625000 0.246067
vt 0.625000 0.250000
vt 0.625000 0.250000
vt 0.625000 0.250000
vt 0.625000 0.250000
vt 0.625922 0.500000
vt 0.625000 0.500000
vt 0.625000 0.500000
vt 0.875000 0.500000
vt 0.875000 0.750000
vt 0.854167 0.750000
vt 0.645833 0.750000
vt 0.666667 0.750000
vt 0.687500 0.750000
vt 0.708333 0.750000
vt 0.729167 0.750000
vt 0.750000 0.750000
vt 0.770833 0.750000
vt 0.791667 0.750000
vt 0.812500 0.750000
vt 0.833333 0.750000
vt -14.836946 -11.839823
vt -16.828472 -9.798384
vt -11.769557 -13.914505
vt -8.702166 -15.278349
vt -5.634776 -16.162968
vt -2.567386 -16.665258
vt 0.500002 -16.828480
vt 3.567393 -16.665243
vt 6.634784 -16.162941
vt 9.702172 -15.278305
vt 12.769562 -13.914446
vt 15.836952 -11.839746
vt 17.828480 -9.798300
vt 15.836945 17.828470
vt 12.769555 17.828465
vt 9.702165 17.828455
vt 6.634775 17.828447
vt 3.567386 17.828442
vt 0.499995 17.828434
vt -2.567396 17.828424
vt -5.634787 17.828417
vt -8.490402 17.828480
vt -11.769567 17.828402
vt -14.836957 17.828392
vt -16.828480 17.828392
vt 17.828470 17.828470
vn -1.0000 0.0000 0.0000
vn 1.0000 0.0000 0.0000
vn -0.3677 0.0000 0.9300
vn 0.3677 0.0000 0.9300
vn 0.2236 0.0000 0.9747
vn 0.1491 0.0000 0.9888
vn 0.0974 0.0000 0.9952
vn 0.0555 0.0000 0.9985
vn 0.0180 0.0000 0.9998
vn -0.0180 -0.0000 0.9998
vn -0.0555 0.0000 0.9985
vn -0.0974 0.0000 0.9952
vn -0.1491 0.0000 0.9888
vn -0.2236 0.0000 0.9747
vn 0.0000 0.0000 1.0000
vn 0.0000 1.0000 0.0000
vn 0.5774 0.5773 0.5773
vn -0.5773 0.5774 0.5773
vn -0.7071 0.0000 0.7071
vn 0.0000 0.7071 0.7071
vn -0.7071 0.7071 0.0000
vn 0.7071 0.7071 -0.0000
vn 0.7071 -0.0000 0.7071
vn -0.4192 0.0000 0.9079
vn 0.4192 0.0000 0.9079
vn -0.8835 0.0532 0.4654
vn 0.8835 0.0532 0.4654
vn -0.6649 0.7469 0.0000
vn 0.6649 0.7469 0.0000
vn -0.3117 0.6686 0.6752
vn 0.3117 0.6686 0.6752
vn 0.1604 0.6967 0.6993
vn 0.1061 0.7025 0.7037
vn 0.0690 0.7051 0.7057
vn 0.0393 0.7064 0.7068
vn 0.0128 0.7069 0.7072
vn -0.0128 0.7069 0.7072
vn -0.0393 0.7064 0.7068
vn -0.0690 0.7051 0.7057
vn -0.1061 0.7025 0.7037
vn -0.1604 0.6967 0.6993
g Cube_Cube.001_Material.001
usemtl Material.001
s off
f 10/1/1 11/2/1 12/3/1 9/4/1
f 13/5/2 14/6/2 16/7/2 15/8/2
f 37/9/3 58/10/3 11/11/3 10/12/3
f 15/8/4 16/7/4 48/13/4 47/14/4
f 47/14/5 48/13/5 49/15/5 46/16/5
f 46/16/6 49/15/6 50/17/6 45/18/6
f 45/18/7 50/17/7 51/19/7 44/20/7
f 44/20/8 51/19/8 52/21/8 43/22/8
f 43/22/9 52/21/9 53/23/9 42/24/9
f 42/24/10 53/23/10 54/25/10 41/26/10
f 41/26/11 54/25/11 55/27/11 40/28/11
f 40/28/12 55/27/12 56/29/12 39/30/12
f 39/30/13 56/29/13 57/31/13 38/32/13
f 38/32/14 57/31/14 58/10/14 37/9/14
g Cube_Cube.001_Material.002
usemtl Material.002
f 126/33/15 125/34/15 28/35/15 105/36/15 103/37/15
f 94/38/15 35/39/15 115/40/15 113/41/15
f 95/42/1 112/43/1 117/44/1 82/45/1
f 116/46/16 99/47/16 86/48/16 88/49/16
f 120/50/2 110/51/2 89/52/2 81/53/2
f 28/35/15 29/54/15 107/55/15 105/36/15
f 36/56/15 134/57/15 133/58/15 102/59/15 100/60/15
f 106/61/16 108/62/16 83/63/16 85/64/16
f 104/65/16 106/61/16 85/64/16 84/66/16
f 114/67/16 116/46/16 88/49/16 118/68/16
f 108/62/16 111/69/16 119/70/16 83/63/16
f 35/39/15 36/56/15 100/60/15 115/40/15
f 99/47/16 101/71/16 87/72/16 86/48/16
f 109/73/17 110/51/17 111/74/17
f 112/43/18 113/75/18 114/76/18
f 94/77/19 113/75/19 112/43/19 95/42/19
f 100/60/20 102/59/20 101/71/20 99/47/20
f 103/37/20 105/36/20 106/61/20 104/65/20
f 105/36/20 107/55/20 108/62/20 106/61/20
f 107/55/20 109/78/20 111/69/20 108/62/20
f 113/41/20 115/40/20 116/46/20 114/67/20
f 115/40/20 100/60/20 99/47/20 116/46/20
f 114/76/21 118/79/21 117/44/21 112/43/21
f 110/51/22 120/50/22 119/80/22 111/74/22
f 89/52/23 110/51/23 109/73/23 90/81/23
f 29/54/15 90/82/15 109/78/15 107/55/15
g Cube_Cube.001_Material.003
usemtl Material.003
f 7/83/16 8/84/16 135/85/16 129/86/16
f 80/87/16 5/88/16 122/89/16 158/90/16
f 8/84/16 70/91/16 137/92/16 135/85/16
f 2/93/1 1/94/1 121/95/1 123/96/1
f 3/97/2 4/98/2 130/99/2 136/100/2
f 1/101/24 27/102/24 157/103/24 121/104/24
f 18/105/5 17/106/5 138/107/5 140/108/5
f 19/109/6 18/105/6 140/108/6 142/110/6
f 20/111/7 19/109/7 142/110/7 144/112/7
f 21/113/8 20/111/8 144/112/8 146/114/8
f 22/115/9 21/113/9 146/114/9 148/116/9
f 23/117/10 22/115/10 148/116/10 150/118/10
f 24/119/11 23/117/11 150/118/11 152/120/11
f 25/121/12 24/119/12 152/120/12 154/122/12
f 26/123/13 25/121/13 154/122/13 156/124/13
f 27/102/14 26/123/14 156/124/14 157/103/14
f 59/125/16 60/126/16 29/127/16 28/128/16
f 61/129/16 62/130/16 30/131/16 92/132/16 91/133/16
f 66/134/16 67/135/16 98/136/16 97/137/16 34/138/16
f 62/130/16 63/139/16 31/140/16 30/131/16
f 63/139/16 64/141/16 32/142/16 31/140/16
f 64/141/16 65/143/16 33/144/16 32/142/16
f 65/143/16 66/134/16 34/138/16 33/144/16
f 68/145/16 69/146/16 36/147/16 35/148/16
f 79/149/16 80/87/16 158/90/16 155/150/16
f 78/151/16 79/149/16 155/150/16 153/152/16
f 77/153/16 78/151/16 153/152/16 151/154/16
f 76/155/16 77/153/16 151/154/16 149/156/16
f 75/157/16 76/155/16 149/156/16 147/158/16
f 74/159/16 75/157/16 147/158/16 145/160/16
f 73/161/16 74/159/16 145/160/16 143/162/16
f 72/163/16 73/161/16 143/162/16 141/164/16
f 71/165/16 72/163/16 141/164/16 139/166/16
f 70/91/16 71/165/16 139/166/16 137/92/16
f 67/135/16 68/145/16 35/148/16 94/167/16 98/136/16
f 6/168/16 59/125/16 28/128/16 125/169/16 124/170/16
f 17/106/25 3/97/25 136/100/25 138/107/25
f 69/146/16 7/83/16 129/86/16 134/171/16 36/147/16
f 82/172/16 81/173/16 89/174/16 93/175/16 96/176/16 95/177/16
f 60/126/16 61/129/16 91/133/16 90/178/16 29/127/16
f 89/174/16 90/179/16 91/180/16 92/181/16 93/175/16
f 94/167/16 95/182/16 96/183/16 97/184/16 98/136/16
f 123/96/26 124/185/26 125/186/26 126/187/26 127/188/26 128/189/26
f 129/86/27 130/99/27 131/190/27 132/191/27 133/192/27 134/171/27
f 122/89/28 124/170/28 123/193/28 121/194/28
f 129/86/29 135/85/29 136/100/29 130/99/29
f 158/90/30 122/89/30 121/194/30 157/195/30
f 135/85/31 137/92/31 138/196/31 136/100/31
f 137/92/32 139/166/32 140/197/32 138/196/32
f 139/166/33 141/164/33 142/198/33 140/197/33
f 141/164/34 143/162/34 144/199/34 142/198/34
f 143/162/35 145/160/35 146/200/35 144/199/35
f 145/160/36 147/158/36 148/201/36 146/200/36
f 147/158/37 149/156/37 150/202/37 148/201/37
f 149/156/38 151/154/38 152/203/38 150/202/38
f 151/154/39 153/152/39 154/204/39 152/203/39
f 153/152/40 155/150/40 156/205/40 154/204/40
f 155/150/41 158/90/41 157/195/41 156/205/41
f 5/88/16 6/168/16 124/170/16 122/89/16
f 5/88/16 80/87/16 184/206/16 159/207/16
f 80/87/16 79/149/16 183/208/16 184/206/16
f 79/149/16 78/151/16 182/209/16 183/208/16
f 78/151/16 77/153/16 181/210/16 182/209/16
f 77/153/16 76/155/16 180/211/16 181/210/16
f 76/155/16 75/157/16 179/212/16 180/211/16
f 75/157/16 74/159/16 178/213/16 179/212/16
f 74/159/16 73/161/16 177/214/16 178/213/16
f 73/161/16 72/163/16 176/215/16 177/214/16
f 72/163/16 71/165/16 175/216/16 176/215/16
f 71/165/16 70/91/16 174/217/16 175/216/16
f 70/91/16 8/84/16 162/218/16 174/217/16
g Cube_Cube.001_Material.004
usemtl Material.004
f 173/219/16 172/220/16 171/221/16 170/222/16 169/223/16 168/224/16 167/225/16 166/226/16 165/227/16 164/228/16 163/229/16 160/230/16 159/207/16 184/206/16 183/208/16 182/209/16 181/210/16 180/211/16 179/212/16 178/213/16 177/214/16 176/215/16 175/216/16 174/217/16 162/218/16 161/231/16
