<?xml version="1.0" encoding="UTF-8" standalone="no"?>
<svg
   width="2500"
   height="2500"
   viewBox="126.444 2.281 589 589"
   version="1.1"
   id="svg6"
   sodipodi:docname="twitter.svg"
   inkscape:version="1.1 (c68e22c387, 2021-05-23)"
   inkscape:export-filename="D:\Projects\Godot\Godot 3.5\Project Zorori\Sprites\twitter.png"
   inkscape:export-xdpi="1.2288001"
   inkscape:export-ydpi="1.2288001"
   xmlns:inkscape="http://www.inkscape.org/namespaces/inkscape"
   xmlns:sodipodi="http://sodipodi.sourceforge.net/DTD/sodipodi-0.dtd"
   xmlns="http://www.w3.org/2000/svg"
   xmlns:svg="http://www.w3.org/2000/svg">
  <defs
     id="defs10">
    <marker
       style="overflow:visible"
       id="Arrow1Lstart"
       refX="0.0"
       refY="0.0"
       orient="auto"
       inkscape:stockid="Arrow1Lstart"
       inkscape:isstock="true">
      <path
         transform="scale(0.8) translate(12.5,0)"
         style="fill-rule:evenodd;fill:context-stroke;stroke:context-stroke;stroke-width:1.0pt"
         d="M 0.0,0.0 L 5.0,-5.0 L -12.5,0.0 L 5.0,5.0 L 0.0,0.0 z "
         id="path961" />
    </marker>
  </defs>
  <sodipodi:namedview
     id="namedview8"
     pagecolor="#505050"
     bordercolor="#ffffff"
     borderopacity="1"
     inkscape:pageshadow="0"
     inkscape:pageopacity="0"
     inkscape:pagecheckerboard="1"
     showgrid="false"
     inkscape:zoom="0.16631151"
     inkscape:cx="874.86426"
     inkscape:cy="1403.9918"
     inkscape:window-width="1366"
     inkscape:window-height="745"
     inkscape:window-x="-8"
     inkscape:window-y="-8"
     inkscape:window-maximized="1"
     inkscape:current-layer="svg6" />
  <path
     d="m 650.87007,153.16543 c -17.20698,7.63544 -35.6886,12.79716 -55.12031,15.11728 19.83181,-11.87556 35.02465,-30.69411 42.19804,-53.09131 a 191.72823,191.72823 0 0 1 -60.9559,23.28907 c -17.49684,-18.65008 -42.44703,-30.294 -70.05054,-30.294 -52.98354,0 -95.9533,42.95243 -95.9533,95.96693 0,7.51157 0.84604,14.8398 2.47247,21.8757 -79.75959,-4.00848 -150.47161,-42.21415 -197.80289,-100.26775 -8.2647,14.17833 -12.99535,30.66314 -12.99535,48.25165 0,33.29045 16.94437,62.66285 42.69106,79.86859 a 95.53214,95.53214 0 0 1 -43.47517,-11.99818 v 1.2127 c 0,46.50134 33.07492,85.27558 76.97992,94.09399 -8.06527,2.20987 -16.52941,3.36435 -25.28588,3.36435 -6.1911,0 -12.19763,-0.58591 -18.06542,-1.68961 12.21249,38.11401 47.65459,65.8575 89.6371,66.6416 -32.84451,25.74668 -74.22997,41.09436 -119.1792,41.09436 -7.74196,0 -15.3935,-0.46204 -22.90507,-1.36754 42.47676,27.23685 92.91102,43.13699 147.1085,43.13699 176.51186,0 273.04736,-146.23272 273.04736,-273.04736 0,-4.16332 -0.0917,-8.29567 -0.29234,-12.41316 a 195.53728,195.53728 0 0 0 47.94692,-49.7443 z"
     fill="#fff"
     id="path4"
     style="fill:#1c96e8;fill-opacity:1;stroke:#000000;stroke-width:75.8763936;stroke-linecap:round;stroke-miterlimit:4;stroke-dasharray:none;stroke-opacity:1;paint-order:stroke fill markers;stroke-linejoin:round"
     inkscape:export-filename="D:\Projects\Godot\Godot 3.5\Project Zorori\Sprites\path4.png"
     inkscape:export-xdpi="96"
     inkscape:export-ydpi="96" />
</svg>
